<svg xmlns="http://www.w3.org/2000/svg" xmlns:xlink="http://www.w3.org/1999/xlink" width="500" zoomAndPan="magnify" viewBox="0 0 375 374.999991" height="500" preserveAspectRatio="xMidYMid meet" version="1.0"><defs><clipPath id="a20ac91124"><path d="M 295 260 L 371.152344 260 L 371.152344 336.332031 L 295 336.332031 Z M 295 260 " clip-rule="nonzero"/></clipPath><clipPath id="5b0fa27e39"><path d="M 3.652344 38.582031 L 262 38.582031 L 262 336.332031 L 3.652344 336.332031 Z M 3.652344 38.582031 " clip-rule="nonzero"/></clipPath></defs><path fill="#f6b221" d="M 304.039062 273.25 C 303.015625 273.25 301.992188 272.859375 301.210938 272.078125 L 286.390625 257.257812 C 284.832031 255.699219 284.832031 253.167969 286.390625 251.609375 C 287.953125 250.050781 290.480469 250.050781 292.039062 251.609375 L 306.863281 266.429688 C 308.421875 267.992188 308.421875 270.519531 306.863281 272.078125 C 306.082031 272.859375 305.058594 273.25 304.039062 273.25 Z M 304.039062 273.25 " fill-opacity="1" fill-rule="nonzero"/><g clip-path="url(#a20ac91124)"><path fill="#f6b221" d="M 351.757812 336.421875 C 346.546875 336.421875 341.660156 334.402344 337.992188 330.738281 L 301.210938 293.957031 C 297.546875 290.292969 295.53125 285.40625 295.53125 280.195312 C 295.53125 274.984375 297.546875 270.09375 301.210938 266.429688 C 308.804688 258.839844 321.152344 258.839844 328.742188 266.429688 L 365.523438 303.210938 C 369.1875 306.875 371.203125 311.765625 371.203125 316.976562 C 371.203125 322.1875 369.1875 327.074219 365.523438 330.738281 C 361.855469 334.402344 356.96875 336.421875 351.757812 336.421875 Z M 314.976562 268.722656 C 312.039062 268.722656 309.097656 269.839844 306.863281 272.078125 C 302.386719 276.554688 302.386719 283.832031 306.863281 288.308594 L 343.644531 325.089844 C 348.117188 329.5625 355.398438 329.5625 359.871094 325.089844 C 362.027344 322.933594 363.214844 320.050781 363.214844 316.976562 C 363.214844 313.898438 362.027344 311.015625 359.871094 308.859375 L 323.089844 272.078125 C 320.855469 269.84375 317.914062 268.722656 314.976562 268.722656 Z M 314.976562 268.722656 " fill-opacity="1" fill-rule="nonzero"/></g><path fill="#f6b221" d="M 214.707031 269.761719 C 191.746094 269.761719 170.160156 260.820312 153.925781 244.585938 C 137.691406 228.351562 128.75 206.765625 128.75 183.804688 C 128.75 160.84375 137.691406 139.257812 153.925781 123.023438 C 170.160156 106.789062 191.746094 97.847656 214.707031 97.847656 C 237.667969 97.847656 259.253906 106.789062 275.488281 123.023438 C 291.722656 139.257812 300.664062 160.84375 300.664062 183.804688 C 300.664062 206.765625 291.722656 228.351562 275.488281 244.585938 C 259.253906 260.820312 237.667969 269.761719 214.707031 269.761719 Z M 214.707031 105.835938 C 193.878906 105.835938 174.300781 113.945312 159.574219 128.671875 C 144.847656 143.398438 136.738281 162.976562 136.738281 183.804688 C 136.738281 204.628906 144.847656 224.210938 159.574219 238.933594 C 174.300781 253.660156 193.878906 261.773438 214.707031 261.773438 C 235.53125 261.773438 255.113281 253.660156 269.839844 238.933594 C 284.566406 224.210938 292.675781 204.628906 292.675781 183.804688 C 292.675781 162.976562 284.566406 143.398438 269.839844 128.671875 C 255.113281 113.945312 235.53125 105.835938 214.707031 105.835938 Z M 214.707031 105.835938 " fill-opacity="1" fill-rule="nonzero"/><path fill="#f6b221" d="M 214.707031 246.414062 C 198.667969 246.414062 182.625 240.304688 170.414062 228.09375 C 145.992188 203.671875 145.992188 163.933594 170.414062 139.511719 C 194.835938 115.089844 234.574219 115.089844 259 139.511719 C 283.421875 163.933594 283.421875 203.671875 259 228.09375 C 246.785156 240.304688 230.746094 246.414062 214.707031 246.414062 Z M 214.707031 129.179688 C 200.714844 129.179688 186.71875 134.507812 176.0625 145.160156 C 154.757812 166.46875 154.757812 201.140625 176.0625 222.445312 C 197.371094 243.753906 232.042969 243.753906 253.347656 222.445312 C 274.65625 201.140625 274.65625 166.46875 253.347656 145.160156 C 242.695312 134.507812 228.699219 129.179688 214.707031 129.179688 Z M 214.707031 129.179688 " fill-opacity="1" fill-rule="nonzero"/><path fill="#f6b221" d="M 276.65625 266.46875 C 272.84375 266.46875 269.03125 265.015625 266.125 262.113281 L 258.242188 254.230469 C 256.683594 252.671875 256.683594 250.144531 258.242188 248.582031 C 259.804688 247.023438 262.332031 247.023438 263.894531 248.582031 L 271.777344 256.464844 C 274.464844 259.15625 278.84375 259.15625 281.535156 256.464844 L 291.25 246.75 C 293.9375 244.0625 293.9375 239.683594 291.25 236.992188 L 282.511719 228.257812 C 280.949219 226.695312 280.949219 224.167969 282.511719 222.605469 C 284.070312 221.046875 286.601562 221.046875 288.160156 222.605469 L 296.898438 231.34375 C 302.703125 237.148438 302.703125 246.59375 296.898438 252.402344 L 287.183594 262.113281 C 284.28125 265.015625 280.46875 266.46875 276.65625 266.46875 Z M 276.65625 266.46875 " fill-opacity="1" fill-rule="nonzero"/><path fill="#f6b221" d="M 68.679688 119.082031 L 41.574219 119.082031 C 36.617188 119.082031 32.585938 115.050781 32.585938 110.09375 L 32.585938 82.988281 C 32.585938 78.03125 36.617188 74 41.574219 74 L 68.679688 74 C 73.636719 74 77.667969 78.03125 77.667969 82.988281 L 77.667969 110.09375 C 77.667969 115.050781 73.636719 119.082031 68.679688 119.082031 Z M 41.574219 81.988281 C 41.03125 81.988281 40.574219 82.445312 40.574219 82.988281 L 40.574219 110.09375 C 40.574219 110.636719 41.03125 111.09375 41.574219 111.09375 L 68.679688 111.09375 C 69.222656 111.09375 69.675781 110.636719 69.675781 110.09375 L 69.675781 82.988281 C 69.675781 82.445312 69.222656 81.988281 68.679688 81.988281 Z M 41.574219 81.988281 " fill-opacity="1" fill-rule="nonzero"/><path fill="#f6b221" d="M 228.15625 89.480469 L 94.765625 89.480469 C 92.558594 89.480469 90.773438 87.691406 90.773438 85.484375 C 90.773438 83.277344 92.558594 81.492188 94.765625 81.492188 L 228.15625 81.492188 C 230.363281 81.492188 232.152344 83.277344 232.152344 85.484375 C 232.152344 87.691406 230.363281 89.480469 228.15625 89.480469 Z M 228.15625 89.480469 " fill-opacity="1" fill-rule="nonzero"/><path fill="#f6b221" d="M 136.261719 111.59375 L 94.765625 111.59375 C 92.558594 111.59375 90.773438 109.804688 90.773438 107.597656 C 90.773438 105.394531 92.558594 103.605469 94.765625 103.605469 L 136.261719 103.605469 C 138.46875 103.605469 140.257812 105.394531 140.257812 107.597656 C 140.257812 109.804688 138.46875 111.59375 136.261719 111.59375 Z M 136.261719 111.59375 " fill-opacity="1" fill-rule="nonzero"/><path fill="#f6b221" d="M 68.679688 179.714844 L 41.574219 179.714844 C 36.617188 179.714844 32.585938 175.683594 32.585938 170.726562 L 32.585938 143.621094 C 32.585938 138.664062 36.617188 134.632812 41.574219 134.632812 L 68.679688 134.632812 C 73.636719 134.632812 77.667969 138.664062 77.667969 143.621094 L 77.667969 170.726562 C 77.667969 175.683594 73.636719 179.714844 68.679688 179.714844 Z M 41.574219 142.621094 C 41.03125 142.621094 40.574219 143.078125 40.574219 143.621094 L 40.574219 170.726562 C 40.574219 171.269531 41.03125 171.726562 41.574219 171.726562 L 68.679688 171.726562 C 69.222656 171.726562 69.675781 171.269531 69.675781 170.726562 L 69.675781 143.621094 C 69.675781 143.078125 69.222656 142.621094 68.679688 142.621094 Z M 41.574219 142.621094 " fill-opacity="1" fill-rule="nonzero"/><path fill="#f6b221" d="M 123.023438 150.113281 L 94.765625 150.113281 C 92.558594 150.113281 90.773438 148.324219 90.773438 146.117188 C 90.773438 143.910156 92.558594 142.125 94.765625 142.125 L 123.023438 142.125 C 125.230469 142.125 127.019531 143.910156 127.019531 146.117188 C 127.019531 148.324219 125.230469 150.113281 123.023438 150.113281 Z M 123.023438 150.113281 " fill-opacity="1" fill-rule="nonzero"/><path fill="#f6b221" d="M 118.425781 172.226562 L 94.765625 172.226562 C 92.558594 172.226562 90.773438 170.4375 90.773438 168.230469 C 90.773438 166.023438 92.558594 164.238281 94.765625 164.238281 L 118.425781 164.238281 C 120.628906 164.238281 122.417969 166.023438 122.417969 168.230469 C 122.417969 170.4375 120.628906 172.226562 118.425781 172.226562 Z M 118.425781 172.226562 " fill-opacity="1" fill-rule="nonzero"/><path fill="#f6b221" d="M 68.679688 240.347656 L 41.574219 240.347656 C 36.617188 240.347656 32.585938 236.316406 32.585938 231.359375 L 32.585938 204.253906 C 32.585938 199.296875 36.617188 195.265625 41.574219 195.265625 L 68.679688 195.265625 C 73.636719 195.265625 77.667969 199.296875 77.667969 204.253906 L 77.667969 231.359375 C 77.667969 236.316406 73.636719 240.347656 68.679688 240.347656 Z M 41.574219 203.253906 C 41.03125 203.253906 40.574219 203.710938 40.574219 204.253906 L 40.574219 231.359375 C 40.574219 231.902344 41.03125 232.359375 41.574219 232.359375 L 68.679688 232.359375 C 69.222656 232.359375 69.675781 231.902344 69.675781 231.359375 L 69.675781 204.253906 C 69.675781 203.710938 69.222656 203.253906 68.679688 203.253906 Z M 41.574219 203.253906 " fill-opacity="1" fill-rule="nonzero"/><path fill="#f6b221" d="M 119.492188 210.746094 L 94.765625 210.746094 C 92.558594 210.746094 90.773438 208.957031 90.773438 206.75 C 90.773438 204.542969 92.558594 202.757812 94.765625 202.757812 L 119.492188 202.757812 C 121.695312 202.757812 123.484375 204.542969 123.484375 206.75 C 123.484375 208.957031 121.695312 210.746094 119.492188 210.746094 Z M 119.492188 210.746094 " fill-opacity="1" fill-rule="nonzero"/><path fill="#f6b221" d="M 125.613281 232.855469 L 94.765625 232.855469 C 92.558594 232.855469 90.773438 231.070312 90.773438 228.863281 C 90.773438 226.65625 92.558594 224.867188 94.765625 224.867188 L 125.613281 224.867188 C 127.820312 224.867188 129.609375 226.65625 129.609375 228.863281 C 129.609375 231.070312 127.820312 232.855469 125.613281 232.855469 Z M 125.613281 232.855469 " fill-opacity="1" fill-rule="nonzero"/><path fill="#f6b221" d="M 68.679688 300.980469 L 41.574219 300.980469 C 36.617188 300.980469 32.585938 296.949219 32.585938 291.992188 L 32.585938 264.886719 C 32.585938 259.929688 36.617188 255.898438 41.574219 255.898438 L 68.679688 255.898438 C 73.636719 255.898438 77.667969 259.929688 77.667969 264.886719 L 77.667969 291.992188 C 77.667969 296.949219 73.636719 300.980469 68.679688 300.980469 Z M 41.574219 263.886719 C 41.03125 263.886719 40.574219 264.34375 40.574219 264.886719 L 40.574219 291.992188 C 40.574219 292.535156 41.03125 292.992188 41.574219 292.992188 L 68.679688 292.992188 C 69.222656 292.992188 69.675781 292.535156 69.675781 291.992188 L 69.675781 264.886719 C 69.675781 264.34375 69.222656 263.886719 68.679688 263.886719 Z M 41.574219 263.886719 " fill-opacity="1" fill-rule="nonzero"/><path fill="#f6b221" d="M 156.460938 271.375 L 94.765625 271.375 C 92.558594 271.375 90.773438 269.589844 90.773438 267.382812 C 90.773438 265.175781 92.558594 263.386719 94.765625 263.386719 L 156.460938 263.386719 C 158.664062 263.386719 160.453125 265.175781 160.453125 267.382812 C 160.453125 269.589844 158.664062 271.375 156.460938 271.375 Z M 156.460938 271.375 " fill-opacity="1" fill-rule="nonzero"/><path fill="#f6b221" d="M 195.34375 293.488281 L 94.765625 293.488281 C 92.558594 293.488281 90.773438 291.703125 90.773438 289.496094 C 90.773438 287.289062 92.558594 285.5 94.765625 285.5 L 195.34375 285.5 C 197.550781 285.5 199.339844 287.289062 199.339844 289.496094 C 199.339844 291.703125 197.550781 293.488281 195.34375 293.488281 Z M 195.34375 293.488281 " fill-opacity="1" fill-rule="nonzero"/><g clip-path="url(#5b0fa27e39)"><path fill="#f6b221" d="M 238.378906 336.421875 L 26.359375 336.421875 C 13.875 336.421875 3.722656 327.015625 3.722656 315.453125 L 3.722656 59.527344 C 3.722656 47.964844 13.875 38.558594 26.359375 38.558594 L 238.378906 38.558594 C 250.863281 38.558594 261.019531 47.964844 261.019531 59.527344 L 261.019531 113.59375 C 261.019531 115.800781 259.230469 117.589844 257.023438 117.589844 C 254.816406 117.589844 253.03125 115.800781 253.03125 113.59375 L 253.03125 59.527344 C 253.03125 52.371094 246.457031 46.546875 238.378906 46.546875 L 26.359375 46.546875 C 18.28125 46.546875 11.710938 52.371094 11.710938 59.527344 L 11.710938 315.453125 C 11.710938 322.609375 18.28125 328.433594 26.359375 328.433594 L 238.378906 328.433594 C 246.457031 328.433594 253.03125 322.609375 253.03125 315.453125 L 253.03125 254.015625 C 253.03125 251.808594 254.816406 250.019531 257.023438 250.019531 C 259.230469 250.019531 261.019531 251.808594 261.019531 254.015625 L 261.019531 315.453125 C 261.015625 327.015625 250.863281 336.421875 238.378906 336.421875 Z M 238.378906 336.421875 " fill-opacity="1" fill-rule="nonzero"/></g><path fill="#f6b221" d="M 204.285156 215.003906 C 200.164062 215.003906 196.296875 213.402344 193.390625 210.5 L 182.632812 199.742188 C 176.625 193.734375 176.625 183.960938 182.632812 177.953125 C 185.535156 175.050781 189.40625 173.449219 193.527344 173.449219 C 197.582031 173.449219 201.394531 175 204.285156 177.820312 L 224.996094 157.109375 C 227.898438 154.203125 231.769531 152.605469 235.886719 152.605469 C 240.007812 152.605469 243.878906 154.203125 246.78125 157.109375 C 249.6875 160.011719 251.285156 163.878906 251.285156 168 C 251.285156 172.121094 249.6875 175.992188 246.78125 178.894531 L 215.179688 210.5 C 212.273438 213.402344 208.40625 215.003906 204.285156 215.003906 Z M 193.527344 181.4375 C 191.539062 181.4375 189.675781 182.207031 188.28125 183.601562 C 185.390625 186.496094 185.390625 191.199219 188.28125 194.09375 L 199.039062 204.851562 C 200.4375 206.246094 202.296875 207.011719 204.285156 207.011719 C 206.273438 207.011719 208.132812 206.246094 209.527344 204.851562 L 241.132812 173.246094 C 242.527344 171.851562 243.296875 169.988281 243.296875 168.003906 C 243.296875 166.015625 242.527344 164.152344 241.132812 162.757812 C 239.738281 161.363281 237.875 160.59375 235.886719 160.59375 C 233.902344 160.59375 232.039062 161.363281 230.644531 162.757812 L 207.109375 186.292969 C 206.359375 187.042969 205.34375 187.460938 204.285156 187.460938 C 203.222656 187.460938 202.207031 187.042969 201.457031 186.292969 L 198.769531 183.601562 C 197.375 182.207031 195.511719 181.4375 193.527344 181.4375 Z M 193.527344 181.4375 " fill-opacity="1" fill-rule="nonzero"/></svg>